<?xml version="1.0" encoding="utf-8"?>
<!-- Generated by IcoMoon.io -->
<!DOCTYPE svg PUBLIC "-//W3C//DTD SVG 1.1//EN" "http://www.w3.org/Graphics/SVG/1.1/DTD/svg11.dtd">
<svg version="1.1" xmlns="http://www.w3.org/2000/svg" xmlns:xlink="http://www.w3.org/1999/xlink" width="48" height="48" viewBox="0 0 48 48">
<g id="icomoon-ignore">
</g>
<path d="M20.066 30.6h-3.2v-10.398h3.2v10.398zM18.466 18.868c-1.154 0-1.732-0.534-1.732-1.6 0-0.446 0.164-0.824 0.5-1.134 0.332-0.31 0.742-0.466 1.232-0.466 1.154 0 1.732 0.536 1.732 1.602s-0.576 1.598-1.732 1.598zM31.934 30.6h-3.266v-5.8c0-1.51-0.536-2.266-1.602-2.266-0.844 0-1.398 0.422-1.668 1.266-0.086 0.134-0.132 0.402-0.132 0.8v6h-3.266v-7.066c0-1.6-0.024-2.71-0.066-3.332h2.8l0.2 1.398c0.734-1.112 1.8-1.666 3.266-1.666 1.114 0 2.012 0.388 2.7 1.166 0.692 0.778 1.036 1.9 1.036 3.368v6.132z" fill="#666666"></path>
<path d="M24 42c-9.926 0-18-8.074-18-18s8.074-18 18-18 18 8.074 18 18-8.074 18-18 18zM24 10c-7.718 0-14 6.282-14 14s6.282 14 14 14 14-6.282 14-14-6.282-14-14-14z" fill="#666666"></path>
</svg>
