<?xml version="1.0" encoding="utf-8"?>
<!-- Generated by IcoMoon.io -->
<!DOCTYPE svg PUBLIC "-//W3C//DTD SVG 1.1//EN" "http://www.w3.org/Graphics/SVG/1.1/DTD/svg11.dtd">
<svg version="1.1" xmlns="http://www.w3.org/2000/svg" xmlns:xlink="http://www.w3.org/1999/xlink" width="48" height="48" viewBox="0 0 48 48">
<g id="icomoon-ignore">
</g>
<path d="M30.558 20.566c0.716-0.442 1.194-1.042 1.426-1.808-0.698 0.372-1.394 0.624-2.090 0.766-0.624-0.672-1.416-1.014-2.364-1.014-0.928 0-1.71 0.326-2.35 0.958-0.634 0.636-0.956 1.412-0.956 2.316 0 0.274 0.034 0.52 0.104 0.728-2.736-0.096-4.998-1.228-6.782-3.412-0.302 0.534-0.454 1.078-0.454 1.64 0 1.156 0.488 2.072 1.46 2.746-0.554-0.046-1.042-0.188-1.46-0.418 0 0.826 0.242 1.516 0.73 2.124 0.486 0.6 1.114 0.984 1.878 1.146-0.278 0.072-0.57 0.106-0.87 0.106-0.28 0-0.474-0.024-0.592-0.074 0.208 0.674 0.592 1.218 1.148 1.636 0.554 0.42 1.194 0.64 1.914 0.66-1.182 0.93-2.538 1.388-4.070 1.388-0.376 0-0.64-0.004-0.8-0.034 1.508 0.978 3.188 1.466 5.042 1.466 1.902 0 3.584-0.482 5.044-1.446 1.46-0.958 2.542-2.14 3.234-3.534 0.696-1.39 1.042-2.838 1.042-4.348v-0.418c0.672-0.506 1.218-1.076 1.636-1.708-0.596 0.266-1.222 0.444-1.87 0.534z" fill="#666666"></path>
<path d="M24 42c-4.98 0-9.27-1.78-12.752-5.292-3.482-3.502-5.248-7.778-5.248-12.708 0-4.976 1.768-9.268 5.254-12.75 3.48-3.482 7.768-5.25 12.746-5.25 4.932 0 9.208 1.766 12.708 5.248 3.512 3.484 5.292 7.776 5.292 12.752 0 4.93-1.778 9.208-5.288 12.714-3.502 3.506-7.778 5.286-12.712 5.286zM24 10c-3.932 0-7.176 1.334-9.916 4.080-2.75 2.744-4.084 5.988-4.084 9.92 0 3.888 1.336 7.124 4.086 9.89 2.744 2.766 5.986 4.11 9.914 4.11 3.886 0 7.12-1.346 9.884-4.114 2.77-2.768 4.116-6.004 4.116-9.886 0-3.926-1.344-7.17-4.11-9.914-2.766-2.75-6-4.086-9.89-4.086z" fill="#666666"></path>
</svg>
