<?xml version="1.0" encoding="utf-8"?>
<!-- Generated by IcoMoon.io -->
<!DOCTYPE svg PUBLIC "-//W3C//DTD SVG 1.1//EN" "http://www.w3.org/Graphics/SVG/1.1/DTD/svg11.dtd">
<svg version="1.1" xmlns="http://www.w3.org/2000/svg" xmlns:xlink="http://www.w3.org/1999/xlink" width="48" height="48" viewBox="0 0 48 48">
<g id="icomoon-ignore">
</g>
<path d="M24 42c-9.926 0-18-8.076-18-18s8.074-18 18-18 18 8.076 18 18-8.074 18-18 18zM24 10c-7.718 0-14 6.28-14 14s6.282 14 14 14 14-6.28 14-14-6.282-14-14-14z" fill="#666666"></path>
<path d="M27.13 25.252c0.342 0 0.632 0.168 0.882 0.51 0.248 0.338 0.374 0.756 0.374 1.25 0 0.496-0.124 0.914-0.374 1.252s-0.542 0.508-0.882 0.508c-0.362 0-0.674-0.168-0.922-0.508-0.248-0.338-0.374-0.756-0.374-1.252s0.124-0.912 0.374-1.25c0.25-0.342 0.562-0.51 0.922-0.51zM31.55 20.674c0.964 1.044 1.45 2.31 1.45 3.796 0 0.964-0.114 1.83-0.332 2.602-0.222 0.768-0.504 1.396-0.84 1.878-0.342 0.484-0.756 0.908-1.254 1.27-0.498 0.368-0.956 0.632-1.37 0.802-0.416 0.17-0.892 0.3-1.432 0.392-0.532 0.094-0.934 0.144-1.212 0.158-0.27 0.012-0.564 0.018-0.88 0.018-0.070 0-0.31 0.008-0.704 0.020-0.386 0.016-0.718 0.022-0.976 0.022s-0.59-0.006-0.976-0.022c-0.392-0.012-0.632-0.020-0.704-0.020-0.316 0-0.612-0.004-0.88-0.018-0.28-0.014-0.682-0.064-1.212-0.158-0.542-0.090-1.016-0.22-1.432-0.392-0.414-0.168-0.872-0.434-1.368-0.802-0.5-0.364-0.914-0.788-1.256-1.27-0.336-0.482-0.618-1.11-0.84-1.878-0.218-0.772-0.332-1.638-0.332-2.602 0-1.486 0.484-2.752 1.45-3.796-0.106-0.052-0.112-0.572-0.016-1.564 0.086-0.992 0.296-1.906 0.638-2.74 1.204 0.128 2.686 0.808 4.46 2.034 0.6-0.156 1.42-0.236 2.466-0.236 1.098 0 1.918 0.080 2.468 0.236 0.808-0.546 1.582-0.992 2.32-1.332 0.748-0.336 1.288-0.534 1.628-0.586l0.508-0.116c0.344 0.834 0.554 1.75 0.64 2.74 0.1 0.992 0.094 1.512-0.012 1.564zM24.042 30.728c2.166 0 3.798-0.258 4.908-0.78 1.106-0.52 1.666-1.592 1.666-3.21 0-0.938-0.352-1.722-1.058-2.348-0.362-0.34-0.788-0.546-1.276-0.626-0.476-0.078-1.214-0.078-2.208 0-0.99 0.080-1.668 0.116-2.032 0.116-0.496 0-1.034-0.026-1.702-0.078-0.668-0.050-1.192-0.082-1.566-0.098-0.382-0.012-0.79 0.036-1.232 0.138-0.446 0.106-0.808 0.286-1.1 0.546-0.672 0.6-1.014 1.382-1.014 2.348 0 1.618 0.548 2.69 1.642 3.21 1.094 0.522 2.722 0.78 4.888 0.78zM20.91 25.252c0.34 0 0.632 0.168 0.88 0.51 0.248 0.338 0.374 0.756 0.374 1.25 0 0.496-0.124 0.914-0.374 1.252-0.248 0.338-0.542 0.508-0.88 0.508-0.364 0-0.674-0.168-0.924-0.508-0.248-0.338-0.374-0.756-0.374-1.252s0.124-0.912 0.374-1.25c0.25-0.342 0.56-0.51 0.924-0.51z" fill="#666666"></path>
</svg>
